<mxfile host="65bd71144e">
    <diagram id="TO1FqBcx66ZFRkpu9mZc" name="Page-1">
        <mxGraphModel dx="2013" dy="738" grid="1" gridSize="10" guides="1" tooltips="1" connect="1" arrows="1" fold="1" page="1" pageScale="1" pageWidth="827" pageHeight="1169" background="#ffffff" math="0" shadow="0">
            <root>
                <mxCell id="0"/>
                <mxCell id="1" parent="0"/>
                <mxCell id="2" value="&lt;h1&gt;&lt;span style=&quot;background-color: initial;&quot;&gt;Sources&lt;/span&gt;&lt;/h1&gt;&lt;div&gt;Common Interface:&lt;/div&gt;&lt;div&gt;type: S&lt;span style=&quot;background-color: initial;&quot;&gt;ourceType&lt;/span&gt;&lt;/div&gt;&lt;div&gt;&lt;span style=&quot;background-color: initial;&quot;&gt;&lt;br&gt;&lt;/span&gt;&lt;/div&gt;&lt;div&gt;&lt;span style=&quot;background-color: initial;&quot;&gt;Custom Source Config:&lt;/span&gt;&lt;/div&gt;&lt;div&gt;&lt;span style=&quot;background-color: initial;&quot;&gt;&lt;br&gt;&lt;/span&gt;&lt;/div&gt;" style="text;html=1;strokeColor=none;fillColor=none;spacing=5;spacingTop=-20;whiteSpace=wrap;overflow=hidden;rounded=0;fontColor=#000000;" vertex="1" parent="1">
                    <mxGeometry x="-80" y="40" width="190" height="200" as="geometry"/>
                </mxCell>
                <mxCell id="4" value="&lt;h1&gt;&lt;span style=&quot;background-color: initial;&quot;&gt;Sink&lt;/span&gt;&lt;/h1&gt;&lt;div&gt;Common Interface:&lt;/div&gt;&lt;div&gt;type: Sink&lt;span style=&quot;background-color: initial;&quot;&gt;Type&lt;/span&gt;&lt;/div&gt;&lt;div&gt;&lt;br&gt;&lt;/div&gt;&lt;div&gt;&lt;span style=&quot;background-color: initial;&quot;&gt;Custom Source Config:&lt;/span&gt;&lt;/div&gt;&lt;div&gt;&lt;span style=&quot;background-color: initial;&quot;&gt;&lt;br&gt;&lt;/span&gt;&lt;/div&gt;" style="text;html=1;strokeColor=none;fillColor=none;spacing=5;spacingTop=-20;whiteSpace=wrap;overflow=hidden;rounded=0;fontColor=#000000;" vertex="1" parent="1">
                    <mxGeometry x="120" y="40" width="190" height="200" as="geometry"/>
                </mxCell>
                <mxCell id="5" value="&lt;h1&gt;&lt;span style=&quot;background-color: initial;&quot;&gt;Relay Engine&lt;/span&gt;&lt;/h1&gt;&lt;div&gt;TODO?&lt;/div&gt;&lt;div&gt;&lt;span style=&quot;background-color: initial;&quot;&gt;&lt;br&gt;&lt;/span&gt;&lt;/div&gt;" style="text;html=1;strokeColor=none;fillColor=none;spacing=5;spacingTop=-20;whiteSpace=wrap;overflow=hidden;rounded=0;fontColor=#000000;" vertex="1" parent="1">
                    <mxGeometry x="318.5" y="40" width="190" height="200" as="geometry"/>
                </mxCell>
            </root>
        </mxGraphModel>
    </diagram>
</mxfile>